<svg xmlns="http://www.w3.org/2000/svg" viewBox="0 0 100 100" fill="none">
  <defs>
    <linearGradient id="arch" x1="50" y1="16" x2="50" y2="92" gradientUnits="userSpaceOnUse">
      <stop offset="0" stop-color="#8460c6"/>
      <stop offset="1" stop-color="#f0b429"/>
    </linearGradient>
  </defs>
  <path d="M22 91 Q50 63 78 91 Z" fill="#f0b429"/>
  <path d="M48.9 60 L51.1 60 L50.7 76 L49.3 76 Z" fill="#3e9350"/>
  <path d="M50 60 C54.5 49 53.5 35 50 27 C46.5 35 45.5 49 50 60 Z" fill="#3e9350"/>
  <path d="M50 60 C54.5 49 53.5 35 50 27 C46.5 35 45.5 49 50 60 Z" fill="#3e9350" transform="rotate(-26 50 60) translate(50 60) scale(0.88) translate(-50 -60)"/>
  <path d="M50 60 C54.5 49 53.5 35 50 27 C46.5 35 45.5 49 50 60 Z" fill="#3e9350" transform="rotate(26 50 60) translate(50 60) scale(0.88) translate(-50 -60)"/>
  <path d="M50 60 C54.5 49 53.5 35 50 27 C46.5 35 45.5 49 50 60 Z" fill="#3e9350" transform="rotate(-52 50 60) translate(50 60) scale(0.7) translate(-50 -60)"/>
  <path d="M50 60 C54.5 49 53.5 35 50 27 C46.5 35 45.5 49 50 60 Z" fill="#3e9350" transform="rotate(52 50 60) translate(50 60) scale(0.7) translate(-50 -60)"/>
  <path d="M50 60 C54.5 49 53.5 35 50 27 C46.5 35 45.5 49 50 60 Z" fill="#3e9350" transform="rotate(-78 50 60) translate(50 60) scale(0.48) translate(-50 -60)"/>
  <path d="M50 60 C54.5 49 53.5 35 50 27 C46.5 35 45.5 49 50 60 Z" fill="#3e9350" transform="rotate(78 50 60) translate(50 60) scale(0.48) translate(-50 -60)"/>
  <path d="M19 91 L19 52 A31 31 0 0 1 81 52 L81 91" stroke="url(#arch)" stroke-width="6" stroke-linecap="round"/>
</svg>
